<svg width="49" height="49" viewBox="0 0 49 49" fill="none" xmlns="http://www.w3.org/2000/svg">
<path d="M26.8657 1.53824L32.3923 13.2478C32.7766 14.0622 33.5197 14.6265 34.3793 14.7569L46.7377 16.6348C48.9025 16.964 49.7662 19.7449 48.2003 21.3406L39.2578 30.4552C38.6364 31.089 38.3522 32.0028 38.4994 32.8974L40.6101 45.7676C40.9801 48.0217 38.7171 49.7403 36.7812 48.6769L25.7281 42.6008C24.9594 42.1787 24.0406 42.1787 23.2719 42.6008L12.2188 48.6769C10.2829 49.7414 8.01992 48.0217 8.38992 45.7676L10.5006 32.8974C10.6478 32.0028 10.3636 31.089 9.74218 30.4552L0.799694 21.3406C-0.766187 19.7439 0.0975002 16.9629 2.26234 16.6348L14.6207 14.7569C15.4803 14.6265 16.2234 14.0622 16.6077 13.2478L22.1343 1.53824C23.1012 -0.512748 25.8977 -0.512748 26.8657 1.53824Z" fill="#FFC727"/>
</svg>
